<svg width="128" height="45" viewBox="0 0 128 45" fill="none" xmlns="http://www.w3.org/2000/svg">
<path d="M127.649 15.1531H120.838V32.8191H116.736V15.1531H109.925V11.5203H127.649V15.1531Z" fill="white"/>
<path d="M87.4247 11.5789H91.2626L93.6942 18.6248L96.1552 11.5789H99.9638L96.3017 21.2761L99.0116 28.0437L105.032 11.5203H109.544L101.018 32.8191H97.4442L93.6942 23.8835L89.9735 32.8191H86.414L77.9179 11.5203H82.3564L88.4208 28.0437L91.0575 21.2761L87.4247 11.5789Z" fill="white"/>
<path d="M76.9071 29.1863V32.8191H62.1269V11.5203H76.6435V15.1531H66.2577V20.28H75.2372V23.6345H66.2577V29.1863H76.9071Z" fill="white"/>
<path d="M22.525 2.24146C21.8054 3.46488 21.0899 4.60764 20.2021 5.55827C20.6963 6.62003 20.8102 7.89936 20.4802 9.2237C20.1605 10.5058 19.3814 11.8599 18.0811 12.7657C17.2833 13.3213 16.2852 13.6814 15.1389 13.729C15.1427 13.7324 15.1463 13.7361 15.1502 13.7397C17.562 16.0237 21.9431 18.0021 25.097 17.8888C25.9962 16.1602 26.2879 14.169 26.1669 12.1012C25.9548 8.47749 24.3771 4.69627 22.525 2.24146ZM24.5775 2.36175C26.2781 5.00974 27.5757 8.4993 27.7809 12.0067C28.0111 15.9428 26.7696 19.9733 23.0497 22.4782C23.1556 23.2683 23.3545 23.9988 23.6326 24.6743C25.6124 21.6544 29.335 19.1808 32.6665 18.1902C33.5922 17.915 34.5019 17.7457 35.3505 17.7481C36.1992 17.7505 36.9869 17.9247 37.6687 18.3362C38.3505 18.7478 38.8777 19.425 39.1253 20.2705C39.3728 21.1159 39.3698 22.1138 39.1309 23.2896L37.5462 22.9677C37.7493 21.9683 37.721 21.2291 37.5736 20.7248C37.4259 20.2204 37.1883 19.9352 36.833 19.7207C36.4837 19.5098 35.9729 19.3953 35.3522 19.3899C34.3053 20.5211 34.0306 21.6159 34.1167 22.6285C34.2116 23.7428 34.8062 24.7841 35.4968 25.451C36.4782 26.3986 37.5502 26.7209 38.5233 26.5762C39.4966 26.4317 40.4172 25.8159 41.065 24.6263C43.1909 20.7231 42.7158 16.6952 40.4599 13.0331C39.6556 13.625 38.59 13.7399 37.567 13.5203C36.4029 13.2702 35.2233 12.606 34.2145 11.5972C33.2057 10.5885 32.5416 9.40874 32.2915 8.24477C32.0984 7.34581 32.1651 6.41465 32.5854 5.65616C30.1817 4.23817 27.4616 3.10216 24.5775 2.36193V2.36175ZM15.6624 4.42226C15.5792 4.42036 15.4959 4.42044 15.4128 4.42252C11.2069 4.52724 8.06996 6.70623 6.01327 10.1486C6.81763 10.5826 7.37923 11.391 7.67583 12.3103C8.04132 13.4432 8.05603 14.7971 7.68673 16.1751C7.31753 17.5531 6.62792 18.7184 5.74488 19.5169C5.03243 20.161 4.14784 20.5786 3.23988 20.5574C3.13914 23.5547 3.50731 26.7261 4.37494 29.8328C5.81793 27.0361 8.19121 24.1678 11.126 22.2364C13.2622 20.8306 15.7429 19.9405 18.3217 20.026C19.6495 20.07 21.0032 20.3739 22.3496 20.9978C22.9975 20.5403 23.5503 20.033 24.0189 19.4852C20.4535 19.2345 16.5265 17.27 14.0381 14.9136C12.6358 13.5857 11.6326 12.1012 11.6637 10.5087C11.6793 9.71252 12.0021 8.91715 12.6105 8.28017C13.219 7.64318 14.0844 7.14666 15.2225 6.76577L15.7358 8.29904C14.7687 8.62289 14.1427 9.01694 13.7798 9.39697C13.4167 9.77691 13.2885 10.1254 13.2804 10.5402C13.2724 10.9483 13.4286 11.4479 13.7344 11.9882C15.2373 12.3293 16.3227 12.0198 17.1567 11.4388C18.0742 10.7995 18.679 9.76393 18.9112 8.83234C19.2412 7.50852 18.9841 6.41889 18.3722 5.64828C17.7987 4.92605 16.8897 4.45099 15.6624 4.42217L15.6624 4.42226ZM35.3641 5.78485C34.848 5.76953 34.4556 5.91606 34.194 6.17751C33.8455 6.52612 33.7011 7.10746 33.8724 7.90499C34.0436 8.70226 34.5487 9.64458 35.3577 10.4536C36.1667 11.2628 37.109 11.7679 37.9063 11.9392C38.7038 12.1104 39.285 11.966 39.6338 11.6172C39.9823 11.2687 40.1267 10.6876 39.9554 9.89011C39.7842 9.09267 39.279 8.15035 38.4699 7.34131C37.6609 6.53227 36.7186 6.02701 35.9211 5.85582C35.7218 5.81298 35.536 5.78987 35.364 5.78485H35.3641ZM4.71706 11.4317C4.68503 11.4308 4.65267 11.431 4.62012 11.4325C4.22893 11.4509 3.79187 11.6467 3.33811 12.0569C2.73315 12.6039 2.16973 13.5126 1.87356 14.6178C1.57757 15.723 1.61115 16.7915 1.86162 17.5677C2.112 18.3438 2.5276 18.7752 3.00378 18.9027C3.48004 19.0303 4.05558 18.8647 4.66054 18.3177C5.2655 17.7707 5.82892 16.8621 6.12491 15.7569C6.42116 14.6517 6.38758 13.5831 6.1372 12.8069C5.88682 12.0308 5.47105 11.5996 4.99478 11.4719C4.90408 11.4477 4.81092 11.4341 4.71706 11.4317ZM33.1428 19.7358C33.1376 19.7372 33.1328 19.7384 33.1276 19.74C29.9271 20.6917 25.9987 23.5207 24.5378 26.3233C25.5807 27.8098 27.0714 28.9569 28.8008 29.8249C32.0452 31.4531 36.1087 31.9776 39.1607 31.6011C38.5095 30.452 37.9172 29.3409 37.5324 28.1898C36.4177 28.0546 35.312 27.5203 34.3736 26.6141C33.423 25.6962 32.6401 24.3445 32.5057 22.7654C32.4233 21.7968 32.6109 20.7525 33.1428 19.7358ZM17.4915 21.6249C15.5704 21.7248 13.7244 22.4624 12.0148 23.5874C8.98069 25.5842 6.4936 28.844 5.2945 31.6767C6.57608 31.6867 7.80435 31.7239 8.962 31.9467C9.62452 30.8917 10.7282 30.0773 12.129 29.6757C13.3991 29.3114 14.9612 29.309 16.3958 29.9821C17.2759 30.3952 18.0865 31.0795 18.7009 32.0487C18.7021 32.0435 18.7035 32.0388 18.7048 32.0337C19.4506 28.9128 19.0311 24.3432 17.4916 21.6249H17.4915ZM19.367 21.7357C20.8248 24.9228 21.0531 29.1638 20.2775 32.4095C19.8285 34.2878 19.0447 35.899 17.6499 36.6683C16.9526 37.053 16.1025 37.1711 15.2465 36.9628C14.3906 36.7544 13.5279 36.2529 12.6291 35.458L13.7003 34.2468C14.4641 34.9224 15.1185 35.2675 15.629 35.3918C16.1397 35.5162 16.5056 35.453 16.8689 35.2525C17.2263 35.0555 17.5809 34.6703 17.896 34.1354C17.4399 32.6632 16.6289 31.878 15.7087 31.4462C14.6964 30.9711 13.4973 30.9655 12.5745 31.2301C11.263 31.6062 10.448 32.3734 10.0866 33.2886C9.72526 34.2038 9.79839 35.3086 10.5046 36.4646C12.9587 40.4811 16.9925 42.041 21.6146 41.6972C21.5878 41.6232 21.5635 41.5479 21.5428 41.4705C21.2402 40.3414 21.6916 39.1941 22.4901 38.311C23.2886 37.428 24.4539 36.7385 25.8319 36.3691C26.5208 36.1845 27.2039 36.0958 27.8562 36.0991C28.5086 36.1022 29.1302 36.1974 29.6967 36.3801C30.6628 36.6916 31.5051 37.2969 31.9203 38.1681C34.0822 36.8608 36.1608 35.2268 38.0296 33.3181C34.886 33.4669 31.2154 32.8459 28.0753 31.2699C24.6602 29.556 21.859 26.6002 21.4078 22.347C20.7226 22.051 20.0415 21.8515 19.367 21.7356V21.7357ZM27.8487 37.72C27.3464 37.7172 26.8033 37.7827 26.2506 37.9308C25.1454 38.227 24.2366 38.7904 23.6897 39.3954C23.1427 40.0003 22.9771 40.5759 23.1046 41.0521C23.2323 41.5283 23.6635 41.9439 24.4398 42.1943C25.2159 42.4447 26.2846 42.4784 27.3898 42.1822C28.495 41.8862 29.4035 41.3228 29.9505 40.7178C30.4975 40.1128 30.6632 39.5373 30.5356 39.061C30.408 38.5848 29.9768 38.1691 29.2006 37.9186C28.8124 37.7935 28.3512 37.7226 27.8489 37.7199L27.8487 37.72Z" fill="#FA6F00"/>
</svg>
