<svg width="170" height="171" viewBox="0 0 170 171" fill="none" xmlns="http://www.w3.org/2000/svg">
<path d="M85.2285 149.918C120.33 149.918 148.785 121.463 148.785 86.3617C148.785 51.2604 120.33 22.8052 85.2285 22.8052C50.1272 22.8052 21.672 51.2604 21.672 86.3617C21.672 121.463 50.1272 149.918 85.2285 149.918Z" fill="white"/>
<path d="M118.139 74.0249L117.007 97.3901L104.415 108.243L97.9317 96.3614L112.573 76.9037L118.139 74.0249Z" fill="white"/>
<path d="M84.9416 170.54C68.1554 170.54 51.7462 165.562 37.789 156.236C23.8319 146.911 12.9536 133.655 6.5298 118.147C0.106018 102.639 -1.57474 85.5736 1.70008 69.11C4.97489 52.6463 13.0582 37.5236 24.9278 25.654C36.7974 13.7844 51.9202 5.70106 68.3838 2.42625C84.8474 -0.84857 101.912 0.832184 117.421 7.25596C132.929 13.6797 146.184 24.558 155.51 38.5152C164.836 52.4724 169.814 68.8816 169.814 85.6677C169.788 108.169 160.838 129.742 144.927 145.654C129.016 161.565 107.443 170.515 84.9416 170.54ZM84.9416 6.26593C69.2405 6.26278 53.8911 10.9156 40.8345 19.636C27.7778 28.3564 17.6002 40.7527 11.5888 55.2574C5.57732 69.762 4.00201 85.7236 7.06204 101.124C10.1221 116.523 17.68 130.67 28.7801 141.775C39.8801 152.879 54.0238 160.443 69.4226 163.509C84.8213 166.575 100.783 165.006 115.291 159.001C129.798 152.995 142.198 142.823 150.924 129.769C159.649 116.716 164.308 101.369 164.311 85.6677C164.288 64.6232 155.919 44.447 141.04 29.5647C126.161 14.6825 105.986 6.30932 84.9416 6.28188V6.26593Z" fill="white"/>
<path d="M149.854 19.2557L124.511 36.5205L73.4743 71.2732L33.3946 124.2L14.9417 148.562L9.90182 155.212L16.7838 150.531L42.0389 133.323L97.6688 95.4358L134.407 46.9271L152.948 22.4535L161.249 11.4966L149.854 19.2557ZM94.1361 91.8952C92.1592 93.8711 89.5582 95.1005 86.7765 95.3737C83.9948 95.647 81.2043 94.9472 78.8807 93.3937C76.5571 91.8401 74.844 89.529 74.0334 86.854C73.2228 84.1789 73.3648 81.3056 74.4352 78.7236C75.5056 76.1415 77.4382 74.0105 79.9037 72.6937C82.3692 71.3769 85.215 70.9557 87.9563 71.5019C90.6975 72.048 93.1646 73.5279 94.9371 75.6891C96.7095 77.8504 97.6778 80.5594 97.6768 83.3545C97.678 84.9411 97.3658 86.5123 96.7582 87.9779C96.1506 89.4436 95.2595 90.7748 94.1361 91.8952Z" fill="#FB6F01"/>
<path d="M85.6991 95.4126C92.4903 95.4126 97.9957 89.9072 97.9957 83.116C97.9957 76.3247 92.4903 70.8193 85.6991 70.8193C78.9079 70.8193 73.4025 76.3247 73.4025 83.116C73.4025 89.9072 78.9079 95.4126 85.6991 95.4126Z" fill="#091C43"/>
<path d="M140.819 72.0142C140.418 70.6248 139.579 69.4023 138.426 68.5293C137.248 67.7888 136.189 66.8748 135.284 65.818C133.953 64.2231 131.967 63.5692 130.173 62.6761C129.686 62.4209 129.224 62.4767 129.264 61.6553C129.311 61.0094 128.737 60.6186 128.235 61.3284C127.733 62.0381 127.118 61.8148 126.64 61.3284C126.178 60.7938 125.751 60.229 125.364 59.6378C124.862 58.944 125.571 58.6489 126.162 58.4336C126.836 58.2363 127.447 57.8684 127.938 57.3655C128.428 56.8626 128.78 56.2417 128.961 55.5628C129.359 53.9679 129 53.4177 127.422 53.1147C125.46 52.7159 125.46 52.7159 125.651 50.7941C125.946 47.7798 125.428 47.2375 122.406 46.464C120.396 45.9616 118.57 46.464 116.68 46.8627C115.635 47.062 115.563 47.9233 115.548 48.7526C115.532 49.582 115.548 50.3475 115.5 51.145C115.5 52.3491 114.862 52.6123 113.905 52.8196C112.948 53.0269 111.433 52.7718 111.241 53.6171C111.002 54.7016 112.637 54.877 113.355 55.5628C113.423 55.6236 113.501 55.6721 113.586 55.7064C115.978 56.5596 116.68 58.5931 117.318 60.7303C117.509 61.3603 117.589 61.767 116.951 62.2056C113.426 64.6697 112.023 68.625 110.037 72.1577C109.391 73.298 110.516 73.7526 111.162 74.0556C112.525 74.6138 112.43 75.3156 112.063 76.5437C111.154 79.7908 109.674 82.8502 107.693 85.5787C106.895 86.6393 106.52 88.0189 105.771 89.1353C103.586 92.3969 101.592 95.8419 98.6895 98.5612C97.5811 99.5819 96.2414 100.363 95.1489 101.44C94.3309 102.077 93.6729 102.896 93.227 103.832C92.5791 105.464 91.3838 106.82 89.8458 107.668C89.0265 108.196 88.3598 108.93 87.9121 109.796C87.4644 110.662 87.2513 111.63 87.294 112.604C87.294 114.406 87.6449 116.193 87.8123 117.987C88.2589 122.827 89.0643 127.62 89.9734 132.389C90.0372 132.732 90.1648 132.875 89.6146 133.186C88.4902 133.864 87.1026 133.944 86.1377 134.662C84.8959 135.63 83.5602 136.472 82.1505 137.174C80.775 137.854 79.5687 138.833 78.6195 140.038C77.6703 141.244 77.0023 142.646 76.664 144.143C77.0947 145.284 76.0739 145.985 75.7709 146.894C75.6353 147.317 75.0213 147.054 74.5987 146.799C72.7007 145.706 71.7199 146.065 69.9575 147.421C69.5931 147.684 69.2122 147.924 68.8172 148.138C79.2845 150.932 90.2918 151.006 100.796 148.355C111.3 145.703 120.953 140.414 128.841 132.987C128.705 132.134 128.554 131.288 128.434 130.443C128.154 129.286 127.789 128.15 127.342 127.046C126.544 124.359 126.991 121.687 127.134 119.032C127.246 116.703 127.27 114.367 127.214 112.046C127.158 109.725 127.214 107.732 128.809 105.738C129.965 104.319 130.97 102.405 130.173 100.228C129.933 99.542 130.34 98.7446 130.117 97.9631C129.989 97.5404 130.452 97.6122 130.763 97.5644C131.933 97.4463 133.075 97.1365 134.144 96.6473C134.391 96.5277 134.678 96.0492 135.101 96.7191C135.292 97.0141 135.563 96.0891 135.516 95.9216C135.221 94.5101 135.811 93.8642 137.111 93.5293C138.41 93.1943 138.705 91.9344 139.04 90.9137C139.727 89.048 139.903 87.0328 139.551 85.0763C139.483 84.7322 139.542 84.375 139.718 84.0716C139.894 83.6888 140.005 83.1385 139.718 82.9073C138.737 82.1098 139.168 81.0492 139.072 80.0763C139.023 79.7891 139.06 79.4937 139.177 79.227C139.295 78.9604 139.489 78.7344 139.734 78.5771C140.013 78.3698 140.38 78.0349 140.38 77.7797C140.436 75.802 141.568 74.0078 140.819 72.0142ZM109.001 93.928C110.021 92.4128 110.795 90.7382 111.76 88.9519C112.19 92.3251 109.28 96.2007 104.902 98.0986C106.098 96.3203 107.956 95.483 109.001 93.928ZM119 138.394C117.326 138.138 115.699 137.668 114.016 137.453C112.557 137.269 111.624 136.105 110.579 135.18C108.594 133.378 106.592 131.567 103.594 132.094C103.099 132.107 102.605 132.051 102.127 131.926C100.994 131.775 99.471 131.998 100.245 129.997C99.0962 127.748 99.6624 125.212 99.1122 122.883C98.7658 121.831 98.5672 120.736 98.5221 119.63C98.5779 118.37 98.8171 117.014 97.4615 115.89C100.364 115.746 102.023 113.888 103.737 112.349C104.589 111.593 105.522 110.935 106.52 110.387C108.666 109.215 111.106 109.103 113.323 108.25C114.12 107.931 114.471 108.162 114.662 108.936C115.221 111.113 115.906 113.258 116.345 115.467C116.672 116.919 116.672 118.425 116.345 119.877C116.058 120.959 116.058 122.097 116.345 123.178C116.73 124.562 116.976 125.98 117.079 127.413C117.166 129.303 117.334 131.296 118.363 132.867C119.391 134.438 119.407 135.969 119.742 137.572C119.846 138.162 119.782 138.521 119 138.394Z" fill="#091C43"/>
<path d="M69.0724 61.2751C68.9767 60.7647 68.889 60.2783 68.7933 59.7918C68.6976 59.3054 68.6338 58.8588 68.5461 58.3963L68.3069 57.1044C68.2351 56.6658 68.1553 56.2352 68.0756 55.7966C68.0801 55.7276 68.0801 55.6583 68.0756 55.5893C68.058 55.5598 68.0333 55.5351 68.0038 55.5175L67.1107 55.0231L66.0102 54.3532L65.3723 53.9545C65.3391 53.937 65.3021 53.9279 65.2646 53.9279C65.2271 53.9279 65.1902 53.937 65.157 53.9545C64.6705 54.0901 64.192 54.2336 63.7056 54.3612C63.3467 54.4569 62.9879 54.5366 62.6211 54.6164C62.0708 54.744 61.5126 54.8716 60.9544 54.9832L59.3595 55.2783L57.964 55.5015L56.6562 55.6291L55.5238 55.7727H55.3244C55.3244 55.9641 55.3244 56.1555 55.3244 56.3468L55.2766 57.2878C55.2766 57.3995 55.2766 57.5191 55.2766 57.6307C55.2675 57.7083 55.2374 57.7819 55.1897 57.8437C55.1419 57.9056 55.0782 57.9532 55.0055 57.9816C54.8246 58.0983 54.6146 58.1619 54.3994 58.165C54.3483 58.1655 54.2977 58.1551 54.2509 58.1345C54.2041 58.1139 54.1623 58.0835 54.1283 58.0454L53.3468 57.4154L52.8842 56.9848C52.7088 56.8173 52.5334 56.6658 52.3579 56.5063C52.1825 56.3468 52.1745 56.3229 52.0868 56.2352C52.0041 56.1472 51.9133 56.0671 51.8157 55.996C51.7454 55.9754 51.6707 55.9754 51.6004 55.996C51.3358 56.0321 51.0675 56.0321 50.8029 55.996C50.7085 55.9857 50.6167 55.9587 50.5318 55.9162C50.3803 55.8444 50.3962 55.685 50.3962 55.5574C50.3934 55.4539 50.4168 55.3514 50.4642 55.2594C50.5116 55.1674 50.5815 55.0888 50.6673 55.0311L50.4201 54.8716L48.889 53.8987L47.8843 53.2129L46.9034 52.6307L45.9465 52.0167C45.8348 51.937 45.8109 51.8652 45.8986 51.7535C45.9782 51.6475 46.0753 51.5558 46.1857 51.4824C46.3895 51.3637 46.6198 51.2978 46.8555 51.291C47.0991 51.2807 47.3425 51.3158 47.5732 51.3947L48.7854 51.7137L50.5398 52.1921L51.6323 52.4792C51.6323 52.3437 51.5764 52.232 51.5525 52.1124C51.5286 51.9928 51.4169 51.6419 51.3531 51.4106C51.2893 51.1794 51.1697 50.7647 51.082 50.4378C50.9943 50.1108 50.9464 49.8795 50.8587 49.6403C50.8587 49.4968 50.8587 49.4649 50.9783 49.425C51.098 49.3851 51.4329 49.2416 51.6721 49.1698C51.8631 49.1173 52.0666 49.1343 52.2463 49.2177C52.4911 49.311 52.7307 49.4174 52.964 49.5366C53.105 49.6205 53.2385 49.7166 53.3627 49.8237L53.9209 50.2384L54.9018 50.988L55.9145 51.7296C56.0262 51.8173 56.1458 51.8971 56.2495 51.9928C56.3531 52.0885 56.4249 51.9928 56.5047 51.9928L57.6769 51.5462L58.6657 51.1555L59.4632 50.8445L60.4839 50.4457L60.8986 50.2942L60.5078 50.0071L59.6466 49.4011L58.8491 48.8269L58.4345 48.5319C58.3075 48.4518 58.1742 48.3825 58.0358 48.3245L56.5924 47.7424L54.4712 46.8891L52.8763 46.2591L51.2814 45.6132L49.4791 44.8237L47.5493 44.0263L46.7519 43.7312C46.6402 43.6834 46.6402 43.6515 46.7519 43.5638C46.8635 43.476 47.1506 43.1491 47.334 42.9258C47.5873 42.6505 47.9343 42.4799 48.3069 42.4473C48.4558 42.4411 48.6045 42.4627 48.7455 42.5111L49.9975 42.7504L51.2016 42.9816L52.4457 43.2288L53.5541 43.4362L54.7981 43.6834L56.5764 44.0263L58.4584 44.3851L60.2287 44.728L61.5126 44.9752L62.7566 45.2145L63.881 45.4378L65.0214 45.6451L66.1378 45.8764L68.0118 46.2272L69.3754 46.4984L70.2766 46.6738C70.3137 46.6701 70.3511 46.6701 70.3882 46.6738C70.554 46.6988 70.7232 46.6649 70.8667 46.5781C71.1617 46.4744 71.4488 46.3548 71.7359 46.2432L72.7407 45.8524L73.586 45.5335L74.2877 45.2703L75.0293 44.9832L76.0501 44.5845C76.2734 44.4968 76.5046 44.425 76.7199 44.3213C76.8977 44.2379 77.0707 44.1447 77.2383 44.0422C77.4057 43.9386 77.5652 43.8269 77.7407 43.7312C77.9613 43.6063 78.1905 43.497 78.4265 43.4043C78.6843 43.2999 78.9512 43.2198 79.2239 43.165C79.604 43.0976 79.9873 43.0497 80.3722 43.0215C80.6881 43.0213 81.0015 43.0781 81.2973 43.189C81.6718 43.298 82.0566 43.3675 82.4456 43.3963C82.8853 43.4107 83.3217 43.4776 83.7454 43.5957C83.9718 43.6494 84.1736 43.7777 84.3182 43.9599C84.4629 44.1422 84.542 44.3678 84.5429 44.6004C84.5552 44.8856 84.4709 45.1666 84.3036 45.3979C84.1476 45.6586 83.9511 45.8928 83.7215 46.0917C83.4683 46.3295 83.202 46.5531 82.9241 46.7615C82.5971 46.9928 82.2702 47.2161 81.9273 47.4234C81.5844 47.6307 81.1298 47.878 80.7151 48.1012C80.4679 48.2368 80.1968 48.3484 79.9177 48.476C79.6386 48.6036 79.2478 48.803 78.9049 48.9545L77.8922 49.3931L77.0389 49.744C76.712 49.8795 76.3691 50.0071 76.0341 50.1347L75.3244 50.4059L74.4791 50.7009L73.7694 50.9481L73.6019 50.996C73.5222 50.996 73.4982 50.996 73.4823 51.1076L73.1952 52.248L72.6051 54.4968C72.4536 55.1267 72.2861 55.7488 72.1266 56.3708C71.9671 56.9928 71.8396 57.4712 71.704 58.0215C71.5684 58.5717 71.4648 59.0263 71.3212 59.5287C71.2613 59.8424 71.1565 60.1458 71.0102 60.4298C70.8916 60.6526 70.6917 60.8211 70.452 60.9003C70.0613 61.0199 69.6546 61.1235 69.2718 61.2272L69.0724 61.2751Z" fill="#091C43"/>
</svg>
