<svg width="26" height="26" viewBox="0 0 26 26" fill="none" xmlns="http://www.w3.org/2000/svg">
<path d="M18.0925 1.82967C18.4898 1.43238 18.9613 1.11722 19.4804 0.902187C19.9994 0.687154 20.5557 0.576457 21.1175 0.576416C21.6793 0.576375 22.2357 0.686992 22.7547 0.901951C23.2738 1.11691 23.7454 1.432 24.1427 1.82923C24.54 2.22646 24.8552 2.69806 25.0702 3.21709C25.2852 3.73612 25.3959 4.29242 25.396 4.85424C25.396 5.41605 25.2854 5.97237 25.0704 6.49143C24.8555 7.01049 24.5404 7.48213 24.1431 7.87942L23.3539 8.66779L17.3041 2.61804L18.0925 1.82967ZM16.0669 3.85617L2.96115 16.9637C2.51988 17.4047 2.21542 17.9637 2.0844 18.5737L0.91802 24.0162C0.887261 24.1591 0.892809 24.3075 0.934157 24.4477C0.975505 24.5879 1.05134 24.7156 1.15472 24.819C1.2581 24.9224 1.38574 24.9982 1.52598 25.0395C1.66622 25.0809 1.81459 25.0864 1.95752 25.0557L7.40002 23.8893C8.00995 23.7583 8.56904 23.4538 9.01002 23.0125L22.1175 9.90504L16.0669 3.85617Z" fill="#FB7100"/>
</svg>
