<svg width="35" height="35" viewBox="0 0 35 35" fill="none" xmlns="http://www.w3.org/2000/svg">
<path fill-rule="evenodd" clip-rule="evenodd" d="M30.2469 6.44927C30.8357 6.96448 30.8954 7.85947 30.3802 8.4483L21.3297 18.7921C21.3295 18.7923 21.3299 18.7919 21.3297 18.7921C20.8594 19.33 20.2026 19.671 19.4919 19.7456C18.781 19.8202 18.0681 19.6234 17.4962 19.1945L12.8806 15.732C12.2547 15.2625 12.128 14.3745 12.5975 13.7487C13.067 13.1228 13.9549 12.996 14.5808 13.4655L19.1962 16.9278L28.2479 6.58258C28.7631 5.99375 29.6581 5.93407 30.2469 6.44927Z" fill="#FB7100"/>
<path fill-rule="evenodd" clip-rule="evenodd" d="M20.9148 6.48541C18.6274 5.87234 16.2055 5.99116 13.9892 6.82518C11.7728 7.6592 9.87341 9.16651 8.55769 11.1354C7.24196 13.1043 6.57603 15.4359 6.65342 17.8027C6.73081 20.1695 7.54763 22.4527 8.98917 24.3314C10.4307 26.2102 12.4245 27.5902 14.6906 28.2776C16.9567 28.9651 19.3812 28.9254 21.6236 28.1642C23.866 27.4031 25.8137 25.9586 27.193 24.0337C28.5723 22.1088 29.3141 19.8002 29.314 17.4321C29.314 16.6497 29.9483 16.0155 30.7307 16.0155C31.5131 16.0154 32.1473 16.6497 32.1474 17.4321C32.1474 20.3922 31.2202 23.2779 29.4961 25.684C27.7719 28.0901 25.3374 29.8957 22.5344 30.8472C19.7314 31.7987 16.7007 31.8483 13.8681 30.9889C11.0355 30.1296 8.54321 28.4046 6.74129 26.0562C4.93937 23.7077 3.91833 20.8538 3.8216 17.8953C3.72486 14.9368 4.55727 12.0223 6.20193 9.56119C7.84659 7.10005 10.2209 5.21591 12.9913 4.17338C15.7617 3.13086 18.7891 2.98234 21.6483 3.74867C22.404 3.95123 22.8525 4.72807 22.6499 5.4838C22.4473 6.23953 21.6705 6.68796 20.9148 6.48541Z" fill="#FB7100"/>
</svg>
