<svg width="211" height="50" viewBox="0 0 211 50" fill="none" xmlns="http://www.w3.org/2000/svg">
<path d="M24.9582 43.5019C35.1621 43.5019 43.4341 35.23 43.4341 25.026C43.4341 14.822 35.1621 6.55005 24.9582 6.55005C14.7542 6.55005 6.48224 14.822 6.48224 25.026C6.48224 35.23 14.7542 43.5019 24.9582 43.5019Z" fill="white"/>
<path d="M34.5253 21.4397L34.1961 28.232L30.5357 31.387L28.651 27.9329L32.9072 22.2766L34.5253 21.4397Z" fill="white"/>
<path d="M24.8748 49.4967C19.995 49.4967 15.2249 48.0497 11.1675 45.3387C7.11013 42.6276 3.9478 38.7743 2.0804 34.266C0.213006 29.7577 -0.27559 24.7969 0.676401 20.011C1.62839 15.225 3.97821 10.8288 7.42872 7.37826C10.8792 3.92775 15.2754 1.57793 20.0614 0.625941C24.8474 -0.326051 29.8082 0.162546 34.3165 2.02994C38.8248 3.89734 42.6781 7.05967 45.3891 11.117C48.1002 15.1744 49.5472 19.9446 49.5472 24.8243C49.5398 31.3656 46.9381 37.6368 42.3127 42.2622C37.6873 46.8876 31.416 49.4894 24.8748 49.4967ZM24.8748 1.74214C20.3105 1.74122 15.8484 3.0938 12.0528 5.62883C8.25721 8.16386 5.29858 11.7675 3.55105 15.984C1.80352 20.2005 1.34557 24.8405 2.23513 29.3173C3.12468 33.7941 5.32177 37.9066 8.54858 41.1347C11.7754 44.3628 15.887 46.5615 20.3634 47.4529C24.8398 48.3442 29.48 47.8881 33.6972 46.1423C37.9145 44.3965 41.5193 41.4393 44.0558 37.6447C46.5924 33.8501 47.9467 29.3886 47.9477 24.8243C47.9409 18.7066 45.508 12.8414 41.1826 8.51512C36.8572 4.18884 30.9924 1.75475 24.8748 1.74678V1.74214Z" fill="white"/>
<path d="M43.7448 5.51829L36.3776 10.5372L21.5412 20.6398L9.89003 36.0256L4.52575 43.1077L3.06065 45.041L5.06125 43.6802L12.4029 38.6776L28.5746 27.6639L39.2545 13.5624L44.6442 6.44788L47.0575 3.2627L43.7448 5.51829ZM27.5476 26.6346C26.9729 27.209 26.2168 27.5664 25.4082 27.6458C24.5995 27.7253 23.7884 27.5219 23.1129 27.0702C22.4374 26.6186 21.9394 25.9468 21.7037 25.1691C21.4681 24.3915 21.5094 23.5562 21.8206 22.8056C22.1317 22.055 22.6935 21.4356 23.4103 21.0527C24.127 20.6699 24.9543 20.5475 25.7512 20.7063C26.548 20.8651 27.2652 21.2952 27.7805 21.9235C28.2957 22.5518 28.5772 23.3393 28.5769 24.1519C28.5773 24.6131 28.4865 25.0698 28.3099 25.4959C28.1332 25.922 27.8742 26.3089 27.5476 26.6346Z" fill="#FB6F01"/>
<path d="M25.095 27.6571C27.0692 27.6571 28.6696 26.0567 28.6696 24.0825C28.6696 22.1082 27.0692 20.5078 25.095 20.5078C23.1208 20.5078 21.5203 22.1082 21.5203 24.0825C21.5203 26.0567 23.1208 27.6571 25.095 27.6571Z" fill="#091C43"/>
<path d="M41.1183 20.8554C41.0019 20.4515 40.7579 20.0962 40.4228 19.8424C40.0804 19.6271 39.7725 19.3614 39.5094 19.0542C39.1223 18.5906 38.5451 18.4005 38.0235 18.1408C37.8821 18.0667 37.7476 18.0829 37.7592 17.8441C37.7731 17.6563 37.6062 17.5428 37.4602 17.7491C37.3141 17.9554 37.1356 17.8905 36.9965 17.7491C36.8621 17.5937 36.7382 17.4295 36.6256 17.2576C36.4796 17.0559 36.6859 16.9702 36.8574 16.9076C37.0534 16.8502 37.2312 16.7433 37.3738 16.5971C37.5163 16.4509 37.6187 16.2704 37.6711 16.073C37.787 15.6094 37.6827 15.4494 37.2237 15.3613C36.6534 15.2454 36.6534 15.2454 36.7091 14.6868C36.7949 13.8105 36.6442 13.6528 35.7656 13.428C35.1814 13.2819 34.6505 13.428 34.1011 13.5439C33.7974 13.6018 33.7766 13.8522 33.7719 14.0933C33.7673 14.3344 33.7719 14.5569 33.758 14.7888C33.758 15.1388 33.5726 15.2153 33.2944 15.2756C33.0162 15.3358 32.5758 15.2617 32.5201 15.5074C32.4506 15.8227 32.9258 15.8737 33.1344 16.073C33.1543 16.0907 33.177 16.1048 33.2017 16.1148C33.8971 16.3628 34.1011 16.9539 34.2866 17.5752C34.3422 17.7583 34.3654 17.8766 34.1799 18.0041C33.1553 18.7204 32.7473 19.8702 32.1701 20.8972C31.9823 21.2287 32.3092 21.3608 32.4969 21.4489C32.8933 21.6112 32.8655 21.8152 32.7589 22.1722C32.4946 23.1161 32.0645 24.0055 31.4885 24.7987C31.2567 25.107 31.1478 25.508 30.9298 25.8326C30.2947 26.7807 29.7151 27.7822 28.8713 28.5727C28.5491 28.8694 28.1596 29.0966 27.842 29.4095C27.6042 29.5948 27.413 29.8329 27.2833 30.105C27.095 30.5795 26.7475 30.9737 26.3004 31.22C26.0622 31.3736 25.8684 31.5869 25.7383 31.8387C25.6081 32.0904 25.5462 32.3719 25.5586 32.655C25.5586 33.1789 25.6606 33.6982 25.7093 34.2198C25.8391 35.6269 26.0732 37.0201 26.3375 38.4064C26.3561 38.5061 26.3932 38.5478 26.2332 38.6382C25.9063 38.8353 25.503 38.8585 25.2225 39.0671C24.8615 39.3486 24.4732 39.5933 24.0634 39.7973C23.6635 39.9951 23.3128 40.2796 23.0369 40.6301C22.761 40.9806 22.5668 41.3883 22.4685 41.8234C22.5937 42.1549 22.2969 42.3589 22.2088 42.6232C22.1694 42.7461 21.9909 42.6696 21.8681 42.5954C21.3163 42.2778 21.0312 42.3821 20.5189 42.7762C20.4129 42.8527 20.3022 42.9224 20.1874 42.9848C23.2302 43.7969 26.4301 43.8185 29.4836 43.0477C32.5372 42.2769 35.3434 40.7392 37.6364 38.5803C37.5969 38.3322 37.5529 38.0865 37.5181 37.8408C37.4366 37.5043 37.3304 37.1742 37.2005 36.8532C36.9687 36.072 37.0985 35.2954 37.1403 34.5235C37.1727 33.8465 37.1797 33.1673 37.1634 32.4927C37.1472 31.8181 37.1634 31.2386 37.6271 30.659C37.9632 30.2464 38.2553 29.69 38.0235 29.0572C37.9539 28.8578 38.0722 28.626 38.0073 28.3988C37.9702 28.2759 38.1046 28.2968 38.195 28.2829C38.5351 28.2486 38.8672 28.1585 39.1779 28.0163C39.2498 27.9815 39.3333 27.8424 39.4561 28.0372C39.5118 28.1229 39.5906 27.854 39.5767 27.8054C39.4909 27.395 39.6624 27.2073 40.0403 27.1099C40.4182 27.0125 40.5039 26.6463 40.6013 26.3495C40.801 25.8072 40.8522 25.2214 40.7497 24.6526C40.7299 24.5526 40.7472 24.4487 40.7984 24.3605C40.8494 24.2493 40.8818 24.0893 40.7984 24.0221C40.5132 23.7903 40.6384 23.4819 40.6106 23.1991C40.5963 23.1156 40.6069 23.0297 40.6411 22.9522C40.6754 22.8747 40.7316 22.809 40.803 22.7633C40.8841 22.703 40.9908 22.6057 40.9908 22.5315C41.007 21.9566 41.3362 21.435 41.1183 20.8554ZM31.8687 27.2258C32.1654 26.7854 32.3903 26.2985 32.6708 25.7793C32.796 26.7599 31.9498 27.8865 30.6772 28.4382C31.0249 27.9213 31.565 27.6779 31.8687 27.2258ZM34.7757 40.152C34.2889 40.0778 33.816 39.9411 33.3268 39.8785C32.9026 39.8251 32.6314 39.4867 32.3277 39.2178C31.7505 38.6939 31.1686 38.1676 30.297 38.3206C30.1532 38.3246 30.0096 38.3082 29.8704 38.272C29.5413 38.2279 29.0985 38.2928 29.3233 37.711C28.9895 37.0572 29.1541 36.32 28.9942 35.6431C28.8935 35.3373 28.8357 35.019 28.8226 34.6973C28.8388 34.331 28.9084 33.937 28.5143 33.6101C29.3581 33.5684 29.8403 33.0282 30.3387 32.5808C30.5863 32.3611 30.8576 32.1698 31.1478 32.0105C31.7713 31.6698 32.4807 31.6373 33.1252 31.3893C33.357 31.2965 33.459 31.3638 33.5146 31.5886C33.6769 32.2215 33.8763 32.8451 34.0038 33.4872C34.0988 33.9093 34.0988 34.3472 34.0038 34.7692C33.9204 35.0837 33.9204 35.4144 34.0038 35.7289C34.1158 36.1311 34.1873 36.5435 34.217 36.9599C34.2425 37.5093 34.2912 38.0888 34.5903 38.5455C34.8893 39.0022 34.8939 39.4473 34.9913 39.9132C35.0214 40.0848 35.0029 40.1891 34.7757 40.152Z" fill="#091C43"/>
<path d="M20.2616 17.7333C20.2338 17.5849 20.2083 17.4435 20.1805 17.3021C20.1526 17.1607 20.1341 17.0309 20.1086 16.8964L20.039 16.5209C20.0182 16.3934 19.995 16.2682 19.9718 16.1407C19.9731 16.1206 19.9731 16.1005 19.9718 16.0804C19.9667 16.0719 19.9595 16.0647 19.951 16.0596L19.6913 15.9158L19.3714 15.7211L19.186 15.6052C19.1763 15.6001 19.1656 15.5975 19.1547 15.5975C19.1438 15.5975 19.133 15.6001 19.1234 15.6052C18.982 15.6446 18.8429 15.6863 18.7015 15.7234C18.5971 15.7513 18.4928 15.7744 18.3862 15.7976C18.2262 15.8347 18.064 15.8718 17.9017 15.9043L17.438 15.99L17.0324 16.0549L16.6522 16.092L16.323 16.1338H16.265C16.265 16.1894 16.265 16.245 16.265 16.3007L16.2511 16.5742C16.2511 16.6067 16.2511 16.6414 16.2511 16.6739C16.2485 16.6964 16.2397 16.7179 16.2259 16.7358C16.212 16.7538 16.1935 16.7676 16.1723 16.7759C16.1197 16.8098 16.0587 16.8283 15.9961 16.8292C15.9813 16.8294 15.9666 16.8263 15.953 16.8203C15.9394 16.8143 15.9272 16.8055 15.9173 16.7944L15.6901 16.6113L15.5557 16.4861C15.5047 16.4374 15.4537 16.3934 15.4027 16.347C15.3517 16.3007 15.3494 16.2937 15.3239 16.2682C15.2998 16.2426 15.2734 16.2193 15.245 16.1987C15.2246 16.1927 15.2029 16.1927 15.1824 16.1987C15.1055 16.2092 15.0275 16.2092 14.9506 16.1987C14.9232 16.1957 14.8965 16.1878 14.8718 16.1755C14.8278 16.1546 14.8324 16.1083 14.8324 16.0712C14.8316 16.0411 14.8384 16.0113 14.8522 15.9845C14.8659 15.9578 14.8863 15.935 14.9112 15.9182L14.8394 15.8718L14.3943 15.589L14.1022 15.3896L13.817 15.2204L13.5389 15.0419C13.5064 15.0187 13.4994 14.9978 13.5249 14.9654C13.5481 14.9346 13.5763 14.9079 13.6084 14.8866C13.6676 14.8521 13.7346 14.8329 13.8031 14.8309C13.8739 14.8279 13.9447 14.8382 14.0118 14.8611L14.3641 14.9538L14.8741 15.0929L15.1917 15.1763C15.1917 15.1369 15.1755 15.1045 15.1685 15.0697C15.1616 15.0349 15.1291 14.9329 15.1106 14.8657C15.092 14.7985 15.0573 14.6779 15.0318 14.5829C15.0063 14.4878 14.9924 14.4206 14.9669 14.3511C14.9669 14.3093 14.9669 14.3001 15.0016 14.2885C15.0364 14.2769 15.1338 14.2352 15.2033 14.2143C15.2588 14.199 15.318 14.204 15.3702 14.2282C15.4414 14.2553 15.511 14.2863 15.5789 14.3209C15.6199 14.3453 15.6586 14.3732 15.6948 14.4044L15.857 14.5249L16.1422 14.7428L16.4366 14.9584C16.469 14.9839 16.5038 15.0071 16.5339 15.0349C16.5641 15.0628 16.5849 15.0349 16.6081 15.0349L16.9489 14.9051L17.2364 14.7915L17.4682 14.7011L17.7649 14.5852L17.8855 14.5412L17.7719 14.4577L17.5215 14.2815L17.2897 14.1146L17.1691 14.0288C17.1322 14.0056 17.0935 13.9854 17.0532 13.9686L16.6336 13.7993L16.017 13.5513L15.5534 13.3682L15.0897 13.1804L14.5658 12.9509L14.0048 12.7191L13.773 12.6333C13.7405 12.6194 13.7405 12.6101 13.773 12.5846C13.8054 12.5591 13.8889 12.4641 13.9422 12.3992C14.0158 12.3191 14.1167 12.2695 14.225 12.2601C14.2683 12.2583 14.3116 12.2645 14.3525 12.2786L14.7165 12.3482L15.0665 12.4154L15.4282 12.4873L15.7504 12.5475L16.112 12.6194L16.629 12.7191L17.1761 12.8234L17.6907 12.9231L18.064 12.9949L18.4256 13.0645L18.7525 13.1294L19.084 13.1897L19.4085 13.2569L19.9533 13.3589L20.3497 13.4377L20.6116 13.4887C20.6224 13.4876 20.6333 13.4876 20.6441 13.4887C20.6923 13.496 20.7415 13.4861 20.7832 13.4609C20.869 13.4308 20.9524 13.396 21.0359 13.3635L21.328 13.2499L21.5737 13.1572L21.7777 13.0807L21.9933 12.9973L22.29 12.8813C22.3549 12.8558 22.4221 12.835 22.4847 12.8048C22.5364 12.7806 22.5867 12.7535 22.6354 12.7237C22.6841 12.6936 22.7305 12.6611 22.7815 12.6333C22.8456 12.597 22.9122 12.5652 22.9808 12.5383C23.0558 12.5079 23.1334 12.4846 23.2126 12.4687C23.3231 12.4491 23.4345 12.4352 23.5465 12.427C23.6383 12.4269 23.7294 12.4434 23.8154 12.4757C23.9242 12.5074 24.0361 12.5276 24.1492 12.5359C24.277 12.5401 24.4039 12.5596 24.527 12.5939C24.5929 12.6095 24.6515 12.6468 24.6936 12.6998C24.7356 12.7528 24.7586 12.8183 24.7589 12.886C24.7624 12.9689 24.7379 13.0506 24.6893 13.1178C24.644 13.1936 24.5868 13.2617 24.5201 13.3195C24.4465 13.3886 24.3691 13.4536 24.2883 13.5142C24.1932 13.5814 24.0982 13.6463 23.9985 13.7066C23.8988 13.7669 23.7667 13.8388 23.6461 13.9037C23.5743 13.9431 23.4955 13.9755 23.4143 14.0126C23.3332 14.0497 23.2196 14.1077 23.1199 14.1517L22.8255 14.2792L22.5775 14.3812C22.4824 14.4206 22.3827 14.4577 22.2854 14.4948L22.079 14.5736L21.8333 14.6594L21.627 14.7313L21.5783 14.7452C21.5551 14.7452 21.5482 14.7452 21.5435 14.7776L21.4601 15.1091L21.2885 15.7628C21.2445 15.946 21.1958 16.1268 21.1495 16.3076C21.1031 16.4884 21.066 16.6275 21.0266 16.7875C20.9872 16.9474 20.957 17.0796 20.9153 17.2256C20.8979 17.3168 20.8674 17.405 20.8249 17.4876C20.7904 17.5523 20.7323 17.6013 20.6626 17.6244C20.549 17.6591 20.4308 17.6893 20.3195 17.7194L20.2616 17.7333Z" fill="#091C43"/>
<path d="M59.0577 11.1694H68.7816V13.8876H62.0041V17.3548H68.4249V19.9516H62.0041V23.6114H69.0884V26.3296H59.0577V11.1694Z" fill="white"/>
<path d="M76.4652 11.1694H79.5828L85.918 26.3296H82.7147L81.452 23.2048H74.4319L73.1193 26.3224H70.0088L76.4652 11.1694ZM80.3676 20.5937L77.9634 14.7151L75.5092 20.5937H80.3676Z" fill="white"/>
<path d="M88.1224 22.4913C89.151 23.3153 90.4155 23.7901 91.7323 23.8468C93.102 23.8468 94.0223 23.1762 94.0223 22.1845C94.0223 21.3498 93.3731 20.7577 91.6895 20.0871L91.0688 19.8159C88.3507 18.7102 87.1878 17.3404 87.1878 15.3071C87.1878 12.6247 89.1782 10.8625 92.1817 10.8625C93.8193 10.8661 95.4258 11.3096 96.8332 12.1467L95.3636 14.6009C94.4533 14.0207 93.4093 13.6841 92.3315 13.6235C91.1259 13.6235 90.2555 14.2513 90.2555 15.1645C90.2555 15.9278 90.8976 16.5342 92.7025 17.3047L93.4159 17.6115C96.0128 18.6959 97.1114 20.0228 97.1114 22.0133C97.1114 24.8241 94.9712 26.6719 91.7965 26.6719C89.9087 26.6675 88.0697 26.0711 86.5386 24.9668L88.1224 22.4913Z" fill="white"/>
<path d="M102.747 13.8876H97.9676V11.1694H110.495V13.8876H105.715V26.3296H102.747V13.8876Z" fill="white"/>
<path d="M121.753 13.8876H116.973V11.1694H129.501V13.8876H124.692V26.3296H121.753V13.8876Z" fill="white"/>
<path d="M137.662 10.8554C139.217 10.8863 140.729 11.3758 142.007 12.2625C143.285 13.1492 144.273 14.3936 144.846 15.8395C145.42 17.2855 145.554 18.8686 145.231 20.3903C144.908 21.9119 144.143 23.3044 143.032 24.393C141.921 25.4815 140.513 26.2177 138.985 26.5091C137.457 26.8005 135.877 26.6342 134.443 26.031C133.009 25.4279 131.785 24.4147 130.925 23.1186C130.065 21.8226 129.607 20.3014 129.608 18.7458C129.613 17.6973 129.827 16.6604 130.235 15.6948C130.644 14.7293 131.24 13.8544 131.989 13.1206C132.738 12.3869 133.625 11.8089 134.599 11.4201C135.573 11.0313 136.614 10.8394 137.662 10.8554ZM137.662 23.7968C138.668 23.8309 139.661 23.5639 140.514 23.0301C141.366 22.4962 142.04 21.7198 142.449 20.8004C142.858 19.8809 142.982 18.8604 142.807 17.8696C142.632 16.8788 142.165 15.9629 141.466 15.2392C140.767 14.5156 139.868 14.0173 138.884 13.8081C137.899 13.5989 136.875 13.6884 135.942 14.0652C135.009 14.4419 134.21 15.0887 133.647 15.9227C133.084 16.7566 132.783 17.7397 132.782 18.7458C132.766 19.3992 132.88 20.0492 133.118 20.6581C133.355 21.267 133.711 21.8226 134.165 22.2926C134.619 22.7626 135.162 23.1376 135.763 23.3959C136.363 23.6541 137.009 23.7904 137.662 23.7968Z" fill="white"/>
<path d="M151.752 11.1694H154.827L158.002 22.4486L161.426 11.1694H164.194L167.619 22.5056L170.815 11.1694H173.918L169.452 26.3296H166.071L162.853 15.6925H162.689L159.471 26.3296H156.154L151.752 11.1694Z" fill="white"/>
<path d="M175.06 11.1694H184.776V13.8876H178.006V17.3548H184.427V19.9516H178.006V23.6114H185.09V26.3296H175.06V11.1694Z" fill="white"/>
<path d="M187.794 22.4913C188.823 23.3153 190.087 23.7901 191.404 23.8468C192.781 23.8468 193.694 23.1762 193.694 22.1845C193.694 21.3498 193.045 20.7577 191.368 20.0871L190.74 19.8159C188.022 18.7102 186.859 17.3404 186.859 15.3071C186.859 12.6247 188.85 10.8625 191.853 10.8625C193.493 10.8663 195.102 11.3097 196.512 12.1467L195.035 14.6009C194.125 14.0207 193.081 13.6841 192.003 13.6235C190.797 13.6235 189.927 14.2513 189.927 15.1645C189.927 15.9278 190.569 16.5342 192.374 17.3047L193.088 17.6115C195.684 18.6959 196.783 20.0228 196.783 22.0133C196.783 24.8241 194.643 26.6719 191.468 26.6719C189.58 26.6675 187.741 26.0711 186.21 24.9668L187.794 22.4913Z" fill="white"/>
<path d="M202.455 13.8876H197.675V11.1694H210.202V13.8876H205.422V26.3296H202.455V13.8876Z" fill="white"/>
<path d="M60.7485 32.9431H59.0577V31.98H63.4809V32.9431H61.7901V37.3306H60.7485V32.9431Z" fill="white"/>
<path d="M64.13 31.9796H66.1205C66.3483 31.955 66.5788 31.9775 66.7975 32.0459C67.0163 32.1142 67.2187 32.2268 67.392 32.3767C67.5653 32.5266 67.7059 32.7106 67.8051 32.9173C67.9042 33.1239 67.9597 33.3487 67.9682 33.5777C67.9641 33.9566 67.8256 34.3216 67.5773 34.6078C67.3291 34.894 66.9872 35.0826 66.6127 35.1401L68.2536 37.3303H66.9552L65.4784 35.19H65.1716V37.3303H64.13V31.9796ZM65.9849 34.3482C66.091 34.3629 66.199 34.3548 66.3016 34.3243C66.4042 34.2937 66.4992 34.2415 66.5799 34.1712C66.6607 34.1009 66.7254 34.0141 66.7698 33.9166C66.8142 33.8192 66.8371 33.7133 66.8371 33.6062C66.8371 33.4992 66.8142 33.3933 66.7698 33.2959C66.7254 33.1984 66.6607 33.1116 66.5799 33.0413C66.4992 32.971 66.4042 32.9188 66.3016 32.8883C66.199 32.8577 66.091 32.8496 65.9849 32.8643H65.1716V34.3482H65.9849Z" fill="white"/>
<path d="M70.6365 31.98H71.7351L73.9681 37.3306H72.8409L72.3915 36.232H69.9159L69.4593 37.3306H68.3321L70.6365 31.98ZM72.0134 35.3331L71.1858 33.2356L70.3012 35.3331H72.0134Z" fill="white"/>
<path d="M73.0122 31.98H74.1394L75.7232 35.9823L77.3213 31.98H78.4413L76.1798 37.3306H75.181L73.0122 31.98Z" fill="white"/>
<path d="M78.8407 31.98H82.2723V32.9431H79.8823V34.163H82.1439V35.0834H79.8823V36.3675H82.3793V37.3306H78.8122L78.8407 31.98Z" fill="white"/>
<path d="M83.0356 31.98H84.0701V36.3675H86.2103V37.3306H83.0356V31.98Z" fill="white"/>
<path d="M90.6122 31.98H91.7109L93.951 37.3306H92.8238L92.3743 36.232H89.8988L89.4351 37.3306H88.3079L90.6122 31.98ZM91.9962 35.3331L91.1401 33.2641L90.2769 35.3331H91.9962Z" fill="white"/>
<path d="M96.8262 34.3771H99.3303C99.423 36.1821 98.3529 37.4377 96.7192 37.4377C95.9812 37.4377 95.2735 37.1446 94.7517 36.6228C94.23 36.101 93.9368 35.3933 93.9368 34.6554C93.9368 33.9174 94.23 33.2098 94.7517 32.688C95.2735 32.1662 95.9812 31.873 96.7192 31.873C97.1867 31.8533 97.6503 31.9669 98.0557 32.2006C98.4612 32.4343 98.7919 32.7784 99.0092 33.1929L98.0746 33.678C97.9459 33.4273 97.7491 33.2181 97.5068 33.0742C97.2645 32.9303 96.9866 32.8577 96.7049 32.8647C96.2319 32.8647 95.7782 33.0526 95.4437 33.3871C95.1092 33.7216 94.9213 34.1752 94.9213 34.6482C94.9213 35.1213 95.1092 35.5749 95.4437 35.9094C95.7782 36.2439 96.2319 36.4318 96.7049 36.4318C97.0429 36.4519 97.3763 36.3453 97.6401 36.133C97.9039 35.9207 98.0791 35.6177 98.1317 35.2832H96.8262V34.3771Z" fill="white"/>
<path d="M99.9935 31.98H103.418V32.9431H101.035V34.163H103.29V35.0834H101.035V36.3675H103.532V37.3306H99.965L99.9935 31.98Z" fill="white"/>
<path d="M108.997 37.3306H107.941L105.252 33.6351V37.3306H104.181V31.98H105.23L107.92 35.6541H107.955V31.98H108.997V37.3306Z" fill="white"/>
<path d="M114.704 36.4315C114.437 36.7562 114.102 37.018 113.722 37.1981C113.342 37.3781 112.927 37.472 112.507 37.4731C111.769 37.4731 111.061 37.18 110.54 36.6582C110.018 36.1364 109.725 35.4287 109.725 34.6908C109.725 33.9528 110.018 33.2451 110.54 32.7234C111.061 32.2016 111.769 31.9084 112.507 31.9084C112.917 31.903 113.322 31.9907 113.693 32.165C114.064 32.3393 114.39 32.5955 114.647 32.9143L113.791 33.5422C113.633 33.3443 113.432 33.1849 113.204 33.0761C112.975 32.9674 112.725 32.912 112.471 32.9143C112.023 32.9218 111.595 33.1043 111.279 33.4228C110.963 33.7414 110.784 34.1708 110.781 34.6194C110.774 34.851 110.814 35.0816 110.897 35.2976C110.981 35.5137 111.107 35.7109 111.267 35.8776C111.428 36.0444 111.621 36.1774 111.834 36.2688C112.046 36.3603 112.275 36.4083 112.507 36.4101C112.772 36.4069 113.033 36.3405 113.267 36.2164C113.502 36.0923 113.703 35.9142 113.855 35.6967L114.704 36.4315Z" fill="white"/>
<path d="M116.845 35.2688L114.897 31.98H116.131L117.408 34.2915L118.657 31.98H119.827L117.915 35.2617V37.3306H116.845V35.2688Z" fill="white"/>
<path d="M122.067 31.98H124.057C125.163 31.98 125.941 32.5578 125.941 33.4068C125.934 33.6676 125.849 33.9203 125.696 34.1317C125.543 34.3431 125.33 34.5033 125.085 34.5911C125.359 34.6699 125.601 34.8342 125.775 35.06C125.95 35.2859 126.048 35.5614 126.055 35.8467C126.055 36.7028 125.263 37.3235 124.171 37.3235H122.031L122.067 31.98ZM123.936 34.1987C124.492 34.1987 124.835 33.9419 124.835 33.5352C124.835 33.1286 124.492 32.8218 123.936 32.8218H123.108V34.163L123.936 34.1987ZM123.936 36.446C124.535 36.446 124.913 36.182 124.913 35.7326C124.913 35.2831 124.535 35.0191 123.936 35.0191H123.108V36.446H123.936Z" fill="white"/>
<path d="M128.003 35.2688L126.055 31.98H127.261L128.538 34.2915L129.786 31.98H130.956L129.044 35.2617V37.3306H128.003V35.2688Z" fill="white"/>
<path d="M138.961 37.3306H137.919V33.2927H137.876L136.499 37.3306H135.672L134.245 33.2285V37.3306H133.253V31.98H134.923L136.143 35.6184L137.334 31.98H138.961V37.3306Z" fill="white"/>
<path d="M140.844 31.98V35.1262C140.831 35.2946 140.854 35.4639 140.909 35.6233C140.965 35.7826 141.054 35.9286 141.169 36.052C141.285 36.1754 141.424 36.2735 141.58 36.3401C141.735 36.4067 141.902 36.4403 142.071 36.4388C142.24 36.4405 142.406 36.4069 142.561 36.3402C142.715 36.2734 142.854 36.1751 142.969 36.0514C143.083 35.9278 143.17 35.7815 143.224 35.6222C143.279 35.4628 143.299 35.2939 143.284 35.1262V31.98H144.326V35.2046C144.326 35.8044 144.087 36.3797 143.663 36.8038C143.239 37.2279 142.664 37.4662 142.064 37.4662C141.464 37.4662 140.889 37.2279 140.465 36.8038C140.041 36.3797 139.802 35.8044 139.802 35.2046V31.98H140.844Z" fill="white"/>
<path d="M145.132 31.9796H147.122C147.35 31.955 147.58 31.9775 147.799 32.0459C148.018 32.1142 148.22 32.2268 148.394 32.3767C148.567 32.5266 148.707 32.7106 148.807 32.9173C148.906 33.1239 148.961 33.3487 148.97 33.5777C148.966 33.9566 148.827 34.3216 148.579 34.6078C148.331 34.894 147.989 35.0826 147.614 35.1401L149.255 37.3303H147.957L146.451 35.19H146.173V37.3303H145.132V31.9796ZM146.986 34.3482C147.092 34.3629 147.2 34.3548 147.303 34.3243C147.406 34.2937 147.501 34.2415 147.581 34.1712C147.662 34.1009 147.727 34.0141 147.771 33.9166C147.816 33.8192 147.839 33.7133 147.839 33.6062C147.839 33.4992 147.816 33.3933 147.771 33.2959C147.727 33.1984 147.662 33.1116 147.581 33.0413C147.501 32.971 147.406 32.9188 147.303 32.8883C147.2 32.8577 147.092 32.8496 146.986 32.8643H146.173V34.3482H146.986Z" fill="white"/>
<path d="M152.366 31.8727C152.913 31.8867 153.443 32.0617 153.892 32.3758C154.34 32.69 154.685 33.1293 154.885 33.6387C155.084 34.1482 155.129 34.7053 155.014 35.2402C154.899 35.7751 154.628 36.2642 154.237 36.6462C153.845 37.0282 153.349 37.2862 152.811 37.3879C152.274 37.4896 151.718 37.4305 151.214 37.218C150.709 37.0055 150.279 36.649 149.976 36.1931C149.674 35.7372 149.512 35.2022 149.512 34.655C149.514 34.2841 149.589 33.9173 149.734 33.5758C149.879 33.2344 150.091 32.9252 150.356 32.6663C150.622 32.4074 150.936 32.2039 151.281 32.0676C151.626 31.9313 151.995 31.8651 152.366 31.8727ZM152.366 36.4385C152.721 36.4513 153.072 36.3577 153.373 36.1697C153.675 35.9816 153.914 35.7077 154.059 35.3832C154.203 35.0586 154.248 34.6982 154.187 34.3481C154.125 33.998 153.961 33.6742 153.714 33.4183C153.467 33.1624 153.15 32.9861 152.802 32.9119C152.455 32.8377 152.093 32.8691 151.763 33.002C151.433 33.1349 151.151 33.3632 150.952 33.6578C150.753 33.9523 150.647 34.2995 150.646 34.655C150.641 34.8854 150.681 35.1146 150.764 35.3293C150.848 35.5441 150.973 35.7401 151.133 35.9061C151.293 36.072 151.485 36.2045 151.696 36.2959C151.908 36.3873 152.135 36.4358 152.366 36.4385Z" fill="white"/>
<path d="M155.869 31.9798H157.838C158.205 31.9529 158.575 32.0022 158.923 32.1244C159.271 32.2467 159.59 32.4394 159.86 32.6904C160.13 32.9415 160.345 33.2455 160.492 33.5836C160.64 33.9216 160.716 34.2864 160.716 34.6551C160.716 35.0238 160.64 35.3886 160.492 35.7267C160.345 36.0647 160.13 36.3687 159.86 36.6198C159.59 36.8708 159.271 37.0635 158.923 37.1858C158.575 37.3081 158.205 37.3573 157.838 37.3304H155.869V31.9798ZM157.745 36.403C157.982 36.4137 158.218 36.3759 158.439 36.2918C158.661 36.2077 158.863 36.0791 159.032 35.914C159.202 35.7489 159.336 35.5507 159.427 35.3318C159.517 35.1128 159.561 34.8777 159.557 34.6408C159.561 34.4052 159.517 34.1713 159.426 33.9538C159.336 33.7362 159.201 33.5398 159.031 33.3769C158.861 33.214 158.659 33.0882 158.437 33.0073C158.216 32.9265 157.98 32.8924 157.745 32.9072H156.91V36.403H157.745Z" fill="white"/>
<path d="M161.333 31.98H163.331C164.437 31.98 165.207 32.5578 165.207 33.4068C165.201 33.6676 165.115 33.9203 164.963 34.1317C164.81 34.3431 164.597 34.5033 164.351 34.5911C164.626 34.6679 164.87 34.8317 165.044 35.0579C165.219 35.2842 165.316 35.5608 165.321 35.8467C165.321 36.7028 164.529 37.3235 163.438 37.3235H161.333V31.98ZM163.202 34.1987C163.759 34.1987 164.101 33.9419 164.101 33.5352C164.101 33.1286 163.759 32.8218 163.202 32.8218H162.375V34.163L163.202 34.1987ZM163.238 36.446C163.844 36.446 164.215 36.182 164.215 35.7326C164.215 35.2831 163.844 35.0191 163.238 35.0191H162.375V36.446H163.238Z" fill="white"/>
<path d="M165.949 31.98H169.381V32.9431H166.991V34.163H169.252V35.0834H166.998V36.3675H169.495V37.3306H165.928L165.949 31.98Z" fill="white"/>
<path d="M170.144 31.98H171.186V34.1916L172.969 31.98H174.268L172.127 34.534L174.439 37.3306H173.076L171.171 34.9335V37.3306H170.13L170.144 31.98Z" fill="white"/>
<path d="M178.199 32.9431H176.515V31.98H180.931V32.9431H179.247V37.3306H178.199V32.9431Z" fill="white"/>
<path d="M182.379 31.98H183.478L185.711 37.3306H184.619L184.17 36.232H181.694L181.231 37.3306H180.132L182.379 31.98ZM183.756 35.3045L182.907 33.2356L182.037 35.3045H183.756Z" fill="white"/>
<path d="M184.748 31.98H185.882L187.459 35.9823L189.057 31.98H190.177L187.93 37.3306H186.917L184.748 31.98Z" fill="white"/>
<path d="M190.576 31.98H192.567C193.673 31.98 194.45 32.5578 194.45 33.4068C194.444 33.6676 194.359 33.9203 194.206 34.1317C194.053 34.3431 193.84 34.5033 193.594 34.5911C193.868 34.6702 194.109 34.8348 194.282 35.0607C194.455 35.2866 194.552 35.562 194.557 35.8467C194.557 36.7028 193.773 37.3235 192.674 37.3235H190.576V31.98ZM192.446 34.1987C193.002 34.1987 193.344 33.9419 193.344 33.5352C193.344 33.1286 193.002 32.8218 192.446 32.8218H191.618V34.163L192.446 34.1987ZM192.481 36.446C193.08 36.446 193.451 36.182 193.451 35.7326C193.451 35.2831 193.08 35.0191 192.481 35.0191H191.618V36.446H192.481Z" fill="white"/>
<path d="M197.061 31.98H198.174L200.407 37.3306H199.28L198.83 36.232H196.355L195.891 37.3306H194.792L197.061 31.98ZM198.438 35.3045L197.589 33.2356L196.747 35.3331L198.438 35.3045Z" fill="white"/>
<path d="M200.842 31.98H204.267V32.9431H201.877V34.163H204.145V35.0834H201.884V36.3675H204.388V37.3306H200.821L200.842 31.98Z" fill="white"/>
<path d="M204.702 31.98H205.829L207.413 35.9823L209.004 31.98H210.131L207.877 37.3306H206.871L204.702 31.98Z" fill="white"/>
</svg>
