<svg width="0" height="0">
    <symbol xmlns="http://www.w3.org/2000/svg" width="51" height="51" viewBox="0 0 51 51" id="circle"
        fill="none">
        <circle cx="25.7852" cy="25.6748" r="24.5" stroke="#FB7100" />
    </symbol>
    <symbol xmlns="http://www.w3.org/2000/svg" width="25" height="25" viewBox="0 0 25 25" id="location" fill="none">
            <path d="M12.7852 12.1748C12.1221 12.1748 11.4863 11.9114 11.0174 11.4426C10.5486 10.9737 10.2852 10.3378 10.2852 9.6748C10.2852 9.01176 10.5486 8.37588 11.0174 7.90704C11.4863 7.4382 12.1221 7.1748 12.7852 7.1748C13.4482 7.1748 14.0841 7.4382 14.553 7.90704C15.0218 8.37588 15.2852 9.01176 15.2852 9.6748C15.2852 10.0031 15.2205 10.3282 15.0949 10.6315C14.9692 10.9348 14.7851 11.2104 14.553 11.4426C14.3208 11.6747 14.0452 11.8589 13.7419 11.9845C13.4386 12.1101 13.1135 12.1748 12.7852 12.1748ZM12.7852 2.6748C10.9287 2.6748 9.14819 3.4123 7.83544 4.72506C6.52268 6.03781 5.78519 7.81829 5.78519 9.6748C5.78519 14.9248 12.7852 22.6748 12.7852 22.6748C12.7852 22.6748 19.7852 14.9248 19.7852 9.6748C19.7852 7.81829 19.0477 6.03781 17.7349 4.72506C16.4222 3.4123 14.6417 2.6748 12.7852 2.6748Z" fill="#FB7100"/>
    </symbol>
    <symbol xmlns="http://www.w3.org/2000/svg" width="25" height="25" viewBox="0 0 25 25" id="mail" fill="none">
            <path d="M20.7852 8.54785L12.7852 13.5479L4.78519 8.54785V6.54785L12.7852 11.5479L20.7852 6.54785M20.7852 4.54785H4.78519C3.67519 4.54785 2.78519 5.43785 2.78519 6.54785V18.5479C2.78519 19.0783 2.9959 19.587 3.37097 19.9621C3.74605 20.3371 4.25475 20.5479 4.78519 20.5479H20.7852C21.3156 20.5479 21.8243 20.3371 22.1994 19.9621C22.5745 19.587 22.7852 19.0783 22.7852 18.5479V6.54785C22.7852 6.01742 22.5745 5.50871 22.1994 5.13364C21.8243 4.75857 21.3156 4.54785 20.7852 4.54785Z" fill="#FB7100"/>
    </symbol>
    <symbol viewBox="0 0 14 15" id="arr-lang" xmlns="http://www.w3.org/2000/svg">
        <path fill-rule="evenodd" clip-rule="evenodd"
            d="M7.61872 10.7149C7.27701 11.0566 6.723 11.0566 6.38129 10.7149L2.11164 6.44526C1.76993 6.10355 1.76993 5.54953 2.11164 5.20782C2.45335 4.86612 3.00737 4.86612 3.34907 5.20782L7 8.85875L10.6509 5.20782C10.9926 4.86612 11.5467 4.86612 11.8884 5.20782C12.2301 5.54953 12.2301 6.10355 11.8884 6.44526L7.61872 10.7149Z" />
    </symbol>
    <symbol xmlns="http://www.w3.org/2000/svg" width="35" height="35" id="offer1"
        viewBox="0 0 35 35"
        fill="none">
        <path fill-rule="evenodd" clip-rule="evenodd"
            d="M30.2469 6.44927C30.8357 6.96448 30.8954 7.85947 30.3802 8.4483L21.3297 18.7921C21.3295 18.7923 21.3299 18.7919 21.3297 18.7921C20.8594 19.33 20.2026 19.671 19.4919 19.7456C18.781 19.8202 18.0681 19.6234 17.4962 19.1945L12.8806 15.732C12.2547 15.2625 12.128 14.3745 12.5975 13.7487C13.067 13.1228 13.9549 12.996 14.5808 13.4655L19.1962 16.9278L28.2479 6.58258C28.7631 5.99375 29.6581 5.93407 30.2469 6.44927Z"
            fill="#FB7100" />
        <path fill-rule="evenodd" clip-rule="evenodd"
            d="M20.9148 6.48541C18.6274 5.87234 16.2055 5.99116 13.9892 6.82518C11.7728 7.6592 9.87341 9.16651 8.55769 11.1354C7.24196 13.1043 6.57603 15.4359 6.65342 17.8027C6.73081 20.1695 7.54763 22.4527 8.98917 24.3314C10.4307 26.2102 12.4245 27.5902 14.6906 28.2776C16.9567 28.9651 19.3812 28.9254 21.6236 28.1642C23.866 27.4031 25.8137 25.9586 27.193 24.0337C28.5723 22.1088 29.3141 19.8002 29.314 17.4321C29.314 16.6497 29.9483 16.0155 30.7307 16.0155C31.5131 16.0154 32.1473 16.6497 32.1474 17.4321C32.1474 20.3922 31.2202 23.2779 29.4961 25.684C27.7719 28.0901 25.3374 29.8957 22.5344 30.8472C19.7314 31.7987 16.7007 31.8483 13.8681 30.9889C11.0355 30.1296 8.54321 28.4046 6.74129 26.0562C4.93937 23.7077 3.91833 20.8538 3.8216 17.8953C3.72486 14.9368 4.55727 12.0223 6.20193 9.56119C7.84659 7.10005 10.2209 5.21591 12.9913 4.17338C15.7617 3.13086 18.7891 2.98234 21.6483 3.74867C22.404 3.95123 22.8525 4.72807 22.6499 5.4838C22.4473 6.23953 21.6705 6.68796 20.9148 6.48541Z"
            fill="#FB7100" />
    </symbol>

    <symbol viewBox="0 0 21 21" id="garant1" xmlns="http://www.w3.org/2000/svg">
        <g clip-path="url(#clip0_336_159)">
            <path
                d="M3.342 4.10841V11.5424C3.342 15.5894 6.547 18.8694 10.5 18.8694C14.453 18.8694 17.658 15.5894 17.658 11.5424V4.11241L10.457 1.68941L3.342 4.10841ZM10.455 0.243408L19 3.11741V11.5424C19 16.3474 15.194 20.2434 10.5 20.2434C5.806 20.2434 2 16.3474 2 11.5424V3.11741L10.455 0.243408ZM14.874 6.72841C14.8087 6.66845 14.732 6.62225 14.6485 6.59257C14.565 6.56289 14.4764 6.55033 14.3879 6.55565C14.2994 6.56097 14.2129 6.58406 14.1336 6.62353C14.0542 6.663 13.9836 6.71806 13.926 6.78541L9.61 11.7544L6.822 8.66941C6.76305 8.60337 6.69143 8.54987 6.61138 8.51208C6.53133 8.47429 6.4445 8.45299 6.35606 8.44944C6.26761 8.4459 6.17935 8.46018 6.09654 8.49144C6.01372 8.5227 5.93804 8.5703 5.874 8.63141C5.74288 8.75673 5.6657 8.92817 5.65879 9.10941C5.65189 9.29066 5.7158 9.46747 5.837 9.60241L9.127 13.2424C9.18966 13.3129 9.26669 13.3691 9.3529 13.4072C9.43911 13.4454 9.5325 13.4647 9.62677 13.4637C9.72105 13.4628 9.81403 13.4416 9.89946 13.4017C9.98488 13.3618 10.0608 13.3041 10.122 13.2324L14.929 7.69841C15.0476 7.56126 15.1082 7.38332 15.098 7.20227C15.0877 7.02122 15.0074 6.85127 14.874 6.72841Z" />
        </g>
        <defs>
            <clipPath id="clip0_336_159">
                <rect width="20" height="20" transform="translate(0.5 0.243408)" />
            </clipPath>
        </defs>
    </symbol>

    <symbol viewBox="0 0 20 21" id="garant2" xmlns="http://www.w3.org/2000/svg">
        <path fill-rule="evenodd" clip-rule="evenodd"
            d="M10 2.53503C5.74283 2.53503 2.29169 5.98617 2.29169 10.2434C2.29169 14.5006 5.74283 17.9517 10 17.9517C14.2572 17.9517 17.7084 14.5006 17.7084 10.2434C17.7084 5.98617 14.2572 2.53503 10 2.53503ZM1.04169 10.2434C1.04169 5.29582 5.05247 1.28503 10 1.28503C14.9476 1.28503 18.9584 5.29582 18.9584 10.2434C18.9584 15.1909 14.9476 19.2017 10 19.2017C5.05247 19.2017 1.04169 15.1909 1.04169 10.2434Z" />
        <path fill-rule="evenodd" clip-rule="evenodd"
            d="M10 7.53503C8.50425 7.53503 7.29169 8.7476 7.29169 10.2434C7.29169 11.7391 8.50425 12.9517 10 12.9517C11.4958 12.9517 12.7084 11.7391 12.7084 10.2434C12.7084 8.7476 11.4958 7.53503 10 7.53503ZM6.04169 10.2434C6.04169 8.05724 7.81389 6.28503 10 6.28503C12.1861 6.28503 13.9584 8.05724 13.9584 10.2434C13.9584 12.4295 12.1861 14.2017 10 14.2017C7.81389 14.2017 6.04169 12.4295 6.04169 10.2434Z" />
        <path fill-rule="evenodd" clip-rule="evenodd"
            d="M4.60861 3.96814L7.94195 7.30147L7.05806 8.18536L3.72473 4.85202L4.60861 3.96814ZM16.2753 4.85202L12.9419 8.18536L12.0581 7.30147L15.3914 3.96814L16.2753 4.85202ZM7.94195 13.1854L4.60861 16.5187L3.72473 15.6348L7.05806 12.3015L7.94195 13.1854ZM12.9419 12.3015L16.2753 15.6348L15.3914 16.5187L12.0581 13.1854L12.9419 12.3015Z" />
    </symbol>

    <symbol viewBox="0 0 20 21" id="garant3" xmlns="http://www.w3.org/2000/svg">
        <path
            d="M5.83331 5.24338C5.66849 5.24338 5.50737 5.29226 5.37033 5.38382C5.23329 5.47539 5.12648 5.60554 5.06341 5.75781C5.00033 5.91008 4.98383 6.07764 5.01599 6.23929C5.04814 6.40094 5.12751 6.54943 5.24405 6.66597C5.36059 6.78251 5.50908 6.86188 5.67073 6.89404C5.83238 6.92619 5.99994 6.90969 6.15221 6.84661C6.30448 6.78354 6.43463 6.67673 6.5262 6.53969C6.61777 6.40265 6.66664 6.24153 6.66664 6.07671C6.66664 5.8557 6.57884 5.64374 6.42256 5.48746C6.26628 5.33118 6.05432 5.24338 5.83331 5.24338ZM18.0916 10.06L10.1916 2.17671C10.1139 2.09293 10.0198 2.02603 9.91519 1.98015C9.81054 1.93428 9.69757 1.91042 9.58331 1.91005H4.58331C4.47363 1.90941 4.36492 1.93043 4.26338 1.97191C4.16185 2.01338 4.06951 2.07448 3.99164 2.15171L1.90831 4.22671C1.83107 4.30458 1.76997 4.39693 1.7285 4.49846C1.68703 4.59999 1.66601 4.70871 1.66664 4.81838V9.81838C1.66971 10.039 1.75603 10.2504 1.90831 10.41L9.81664 18.3267C9.97633 18.479 10.1877 18.5653 10.4083 18.5684C10.518 18.569 10.6267 18.548 10.7282 18.5065C10.8298 18.4651 10.9221 18.4039 11 18.3267L18.0916 11.235C18.1689 11.1572 18.23 11.0648 18.2715 10.9633C18.3129 10.8618 18.3339 10.7531 18.3333 10.6434C18.3282 10.4256 18.242 10.2176 18.0916 10.06ZM10.4083 16.5684L3.33331 9.48505V5.16005L4.91664 3.57671H9.23331L16.3166 10.6517L10.4083 16.5684Z" />
    </symbol>

    <symbol width="35" height="35" viewBox="0 0 35 35" id="gal" xmlns="http://www.w3.org/2000/svg">
        <path fill-rule="evenodd" clip-rule="evenodd"
            d="M29.6529 6.44927C30.2417 6.96448 30.3014 7.85947 29.7862 8.4483L20.7357 18.7921C20.7355 18.7923 20.7359 18.7919 20.7357 18.7921C20.2654 19.33 19.6086 19.671 18.8979 19.7456C18.187 19.8202 17.4741 19.6234 16.9022 19.1945L12.2866 15.732C11.6607 15.2625 11.534 14.3745 12.0035 13.7487C12.473 13.1228 13.361 12.996 13.9868 13.4655L18.6022 16.9278L27.6539 6.58258C28.1691 5.99375 29.0641 5.93407 29.6529 6.44927Z" />
        <path fill-rule="evenodd" clip-rule="evenodd"
            d="M20.3208 6.48541C18.0334 5.87234 15.6115 5.99116 13.3952 6.82518C11.1788 7.6592 9.27942 9.16651 7.96369 11.1354C6.64796 13.1043 5.98203 15.4359 6.05942 17.8027C6.13681 20.1695 6.95364 22.4527 8.39518 24.3314C9.83671 26.2102 11.8305 27.5902 14.0966 28.2776C16.3627 28.9651 18.7872 28.9254 21.0296 28.1642C23.272 27.4031 25.2197 25.9586 26.599 24.0337C27.9783 22.1088 28.7201 19.8002 28.72 17.4321C28.72 16.6497 29.3543 16.0155 30.1367 16.0155C30.9191 16.0154 31.5534 16.6497 31.5534 17.4321C31.5534 20.3922 30.6263 23.2779 28.9021 25.684C27.1779 28.0901 24.7434 29.8957 21.9404 30.8472C19.1374 31.7987 16.1067 31.8483 13.2741 30.9889C10.4415 30.1296 7.94922 28.4046 6.1473 26.0562C4.34537 23.7077 3.32434 20.8538 3.2276 17.8953C3.13086 14.9368 3.96328 12.0223 5.60794 9.56119C7.2526 7.10005 9.62687 5.21591 12.3973 4.17338C15.1677 3.13086 18.1951 2.98234 21.0543 3.74867C21.81 3.95123 22.2585 4.72807 22.0559 5.4838C21.8533 6.23953 21.0765 6.68796 20.3208 6.48541Z" />
    </symbol>

    <symbol width="25" height="25" viewBox="0 0 25 25" id="loc" xmlns="http://www.w3.org/2000/svg">
        <path
            d="M12.1912 12.1748C11.5282 12.1748 10.8923 11.9114 10.4234 11.4426C9.95458 10.9737 9.69119 10.3378 9.69119 9.6748C9.69119 9.01176 9.95458 8.37588 10.4234 7.90704C10.8923 7.4382 11.5282 7.1748 12.1912 7.1748C12.8542 7.1748 13.4901 7.4382 13.959 7.90704C14.4278 8.37588 14.6912 9.01176 14.6912 9.6748C14.6912 10.0031 14.6265 10.3282 14.5009 10.6315C14.3753 10.9348 14.1911 11.2104 13.959 11.4426C13.7268 11.6747 13.4512 11.8589 13.1479 11.9845C12.8446 12.1101 12.5195 12.1748 12.1912 12.1748ZM12.1912 2.6748C10.3347 2.6748 8.5542 3.4123 7.24145 4.72506C5.92869 6.03781 5.19119 7.81829 5.19119 9.6748C5.19119 14.9248 12.1912 22.6748 12.1912 22.6748C12.1912 22.6748 19.1912 14.9248 19.1912 9.6748C19.1912 7.81829 18.4537 6.03781 17.1409 4.72506C15.8282 3.4123 14.0477 2.6748 12.1912 2.6748Z" />
    </symbol>

    <symbol width="25" height="25" viewBox="0 0 25 25" id="mes" xmlns="http://www.w3.org/2000/svg">
        <path
            d="M20.1912 8.54785L12.1912 13.5479L4.19119 8.54785V6.54785L12.1912 11.5479L20.1912 6.54785M20.1912 4.54785H4.19119C3.08119 4.54785 2.19119 5.43785 2.19119 6.54785V18.5479C2.19119 19.0783 2.40191 19.587 2.77698 19.9621C3.15205 20.3371 3.66076 20.5479 4.19119 20.5479H20.1912C20.7216 20.5479 21.2303 20.3371 21.6054 19.9621C21.9805 19.587 22.1912 19.0783 22.1912 18.5479V6.54785C22.1912 6.01742 21.9805 5.50871 21.6054 5.13364C21.2303 4.75857 20.7216 4.54785 20.1912 4.54785Z" />
    </symbol>

    <symbol width="20" height="21" viewBox="0 0 20 21" id="arr-link"
        xmlns="http://www.w3.org/2000/svg">
        <path fill-rule="evenodd" clip-rule="evenodd"
            d="M14.3503 9.79081C14.8385 10.279 14.8385 11.0704 14.3503 11.5586L8.25082 17.6581C7.76266 18.1462 6.9712 18.1462 6.48305 17.6581C5.99489 17.1699 5.99489 16.3785 6.48305 15.8903L11.6987 10.6747L6.48305 5.45908C5.99489 4.97092 5.99489 4.17947 6.48305 3.69131C6.97121 3.20316 7.76266 3.20316 8.25082 3.69131L14.3503 9.79081Z" />
    </symbol>

    <symbol viewBox="0 0 18 17" id="icon-tg" xmlns="http://www.w3.org/2000/svg">
        <g clip-path="url(#clip0_336_337)">
            <path
                d="M4.92393 9.46646L6.98357 14.6152L9.66494 11.9338L14.2623 15.5879L17.4993 1.0332L0.939331 7.93101L4.92393 9.46646ZM12.7673 5.20908L7.69854 9.83235L7.06721 12.2118L5.90094 9.29552L12.7673 5.20908Z" />
        </g>
        <defs>
            <clipPath id="clip0_336_337">
                <rect width="16.56" height="16.56" transform="translate(0.939331 0.0305176)" />
            </clipPath>
        </defs>
    </symbol>

    <symbol viewBox="0 0 18 17" id="icon-fb" xmlns="http://www.w3.org/2000/svg">
        <g clip-path="url(#clip0_336_325)">
            <path
                d="M15.0735 0.0305176H3.36511C2.02765 0.0305176 0.939331 1.11883 0.939331 2.4563V14.1647C0.939331 15.5022 2.02765 16.5905 3.36511 16.5905H15.0735C16.411 16.5905 17.4993 15.5022 17.4993 14.1647V2.4563C17.4993 1.11883 16.411 0.0305176 15.0735 0.0305176ZM9.25167 12.6446C6.84396 12.6446 4.88527 10.6859 4.88527 8.27817C4.88527 5.87046 6.84396 3.91177 9.25167 3.91177C11.6594 3.91177 13.6181 5.87046 13.6181 8.27817C13.6181 10.6859 11.6594 12.6446 9.25167 12.6446ZM14.1032 4.88208C13.3007 4.88208 12.6478 4.22914 12.6478 3.42661C12.6478 2.62408 13.3007 1.97114 14.1032 1.97114C14.9058 1.97114 15.5587 2.62408 15.5587 3.42661C15.5587 4.22914 14.9058 4.88208 14.1032 4.88208Z" />
            <path
                d="M14.1032 2.94141C13.8355 2.94141 13.618 3.15884 13.618 3.42656C13.618 3.69428 13.8355 3.91172 14.1032 3.91172C14.3709 3.91172 14.5884 3.69428 14.5884 3.42656C14.5884 3.15884 14.3709 2.94141 14.1032 2.94141Z" />
            <path
                d="M9.25168 4.88208C7.37928 4.88208 5.85559 6.40577 5.85559 8.27817C5.85559 10.1506 7.37928 11.6743 9.25168 11.6743C11.1241 11.6743 12.6478 10.1506 12.6478 8.27817C12.6478 6.40577 11.1241 4.88208 9.25168 4.88208Z" />
        </g>
        <defs>
            <clipPath id="clip0_336_325">
                <rect width="16.56" height="16.56" transform="translate(0.939331 0.0305176)" />
            </clipPath>
        </defs>
    </symbol>

    <symbol viewBox="0 0 18 17" id="icon-inst" xmlns="http://www.w3.org/2000/svg">
        <g clip-path="url(#clip0_336_332)">
            <path
                d="M10.9183 16.5905V9.04901H13.3705L13.7351 6.09627H10.9183V4.21549C10.9183 3.36344 11.1471 2.78007 12.3258 2.78007H13.8193V0.147532C13.0926 0.0667347 12.3622 0.0277222 11.6314 0.0306732C9.46379 0.0306732 7.97559 1.40353 7.97559 3.92381V6.09075H5.53931V9.04349H7.98091V16.5905H10.9183Z" />
        </g>
        <defs>
            <clipPath id="clip0_336_332">
                <rect width="16.56" height="16.56" transform="translate(0.939331 0.0305176)" />
            </clipPath>
        </defs>
    </symbol>


</svg>